<svg width="86" height="86" fill="none" xmlns="http://www.w3.org/2000/svg"><path d="m7.94 42.11-7.79-.88a.19.19 0 0 1-.11-.07.15.15 0 0 1 0-.12l.47-4.2a1.78 1.78 0 0 1 .21-.65 1.8 1.8 0 0 1 1.03-.82 1.6 1.6 0 0 1 .69-.06l4.66.52c.233.026.458.101.66.22.196.11.369.256.51.43.139.175.24.375.3.59.07.223.09.459.06.69l-.47 4.2a.14.14 0 0 1-.06.11.17.17 0 0 1-.16.04Zm-.64-1 .39-3.46a.81.81 0 0 0-.17-.62.84.84 0 0 0-.56-.31l-4.67-.52a.798.798 0 0 0-.61.17.84.84 0 0 0-.31.56L.98 40.4l6.32.71ZM8.8 35.24l-.54-.17a.19.19 0 0 1-.1-.08.15.15 0 0 1 0-.13l.69-2.18-6.07-1.92-.69 2.18a.14.14 0 0 1-.21.11l-.54-.17c-.11 0-.14-.1-.11-.21l1.65-5.21a.14.14 0 0 1 .21-.11l.54.17c.11 0 .14.1.11.21l-.68 2.17 6.06 1.92.69-2.17a.14.14 0 0 1 .08-.1.2.2 0 0 1 .13 0l.54.17c.11 0 .14.1.11.21l-1.65 5.21a.14.14 0 0 1-.22.1ZM9.47 28.21l-.48-.26a.15.15 0 0 1-.07-.1.19.19 0 0 1 0-.13l.28-.5a.16.16 0 0 1 .1-.08.19.19 0 0 1 .13 0l.48.26a.81.81 0 0 0 .63.07.83.83 0 0 0 .5-.4l1.27-2.33a.8.8 0 0 0 .07-.64.83.83 0 0 0-.4-.5l-.93-.5a.77.77 0 0 0-.63-.07.8.8 0 0 0-.5.4l-1.28 2.33a1.59 1.59 0 0 1-.44.52c-.175.14-.375.245-.59.31a1.46 1.46 0 0 1-.66.06 1.74 1.74 0 0 1-.67-.2l-.93-.51a1.59 1.59 0 0 1-.52-.44 1.9 1.9 0 0 1-.31-.6 1.75 1.75 0 0 1 .14-1.32l1.28-2.33a1.62 1.62 0 0 1 .44-.53 1.69 1.69 0 0 1 .6-.3 1.62 1.62 0 0 1 .66-.07c.233.021.458.093.66.21l.48.26a.15.15 0 0 1 .07.23l-.28.5a.14.14 0 0 1-.22.06l-.49-.26a.81.81 0 0 0-.63-.07.83.83 0 0 0-.5.4l-1.27 2.33a.8.8 0 0 0-.07.64.83.83 0 0 0 .4.5l.93.5a.829.829 0 0 0 1.13-.33l1.28-2.33a1.59 1.59 0 0 1 .44-.52c.178-.142.381-.247.6-.31.214-.06.438-.08.66-.06.231.022.456.09.66.2l.93.51c.205.114.385.266.53.45.137.176.239.376.3.59.06.218.08.445.06.67a1.75 1.75 0 0 1-.2.65l-1.28 2.32a1.62 1.62 0 0 1-.44.53 2 2 0 0 1-.59.31 1.85 1.85 0 0 1-.67.06 1.6 1.6 0 0 1-.66-.18ZM13.72 14.9l-.36.44a.16.16 0 0 1-.24 0l-.43-.36a.84.84 0 0 0-.917-.088.769.769 0 0 0-.243.208l-1.7 2a.79.79 0 0 0-.19.61.81.81 0 0 0 .29.56l3.61 3a.84.84 0 0 0 1.18-.11l1.7-2a.83.83 0 0 0 .19-.6.82.82 0 0 0-.28-.56l-.44-.37a.17.17 0 0 1-.06-.11.14.14 0 0 1 0-.12l.36-.44a.14.14 0 0 1 .12-.06.16.16 0 0 1 .12 0l.44.36c.178.147.32.332.42.54a1.849 1.849 0 0 1 .11 1.29 1.91 1.91 0 0 1-.33.61l-1.7 2a1.821 1.821 0 0 1-.53.43 1.75 1.75 0 0 1-1.91-.22l-3.61-3a1.74 1.74 0 0 1-.43-.54 2.05 2.05 0 0 1-.19-.64c-.02-.222 0-.445.06-.66.07-.22.182-.423.33-.6l1.7-2a1.49 1.49 0 0 1 .54-.43c.194-.106.409-.171.63-.19.222-.02.445 0 .66.06a1.7 1.7 0 0 1 .61.32l.43.36a.157.157 0 0 1 .16.244.158.158 0 0 1-.1.066ZM20 16.9c-.175.149-.38.258-.6.32-.213.069-.438.09-.66.06a1.68 1.68 0 0 1-1.17-.63l-3-3.64a1.709 1.709 0 0 1-.32-.61 1.849 1.849 0 0 1 .12-1.3 1.71 1.71 0 0 1 .44-.53l2.06-1.68a1.63 1.63 0 0 1 .61-.32 1.76 1.76 0 0 1 1.3.13c.21.106.393.256.54.44l3 3.64c.148.18.26.387.33.61.045.22.045.449 0 .67a1.751 1.751 0 0 1-.63 1.17L20 16.9Zm-4.59-5.63a.79.79 0 0 0-.3.56.82.82 0 0 0 .18.61l3 3.64a.811.811 0 0 0 1.17.12l2.06-1.68a.77.77 0 0 0 .3-.56.76.76 0 0 0-.18-.61l-3-3.64a.77.77 0 0 0-.56-.3.84.84 0 0 0-.61.18l-2.06 1.68ZM28.26 11.3l-3-2.34-2.25 1.2 1.63 3.06a.14.14 0 0 1-.005.183.142.142 0 0 1-.055.037l-.5.27a.14.14 0 0 1-.22-.07l-3.7-6.92a.138.138 0 0 1-.023-.128.14.14 0 0 1 .093-.092l3.72-2a1.74 1.74 0 0 1 .66-.2 1.81 1.81 0 0 1 1.26.38 1.7 1.7 0 0 1 .43.53l.5.94c.186.327.253.709.19 1.08a1.89 1.89 0 0 1-.51 1l-.3.29 3 2.31a.08.08 0 0 1 0 .09.1.1 0 0 1-.06.09l-.58.31a.239.239 0 0 1-.15 0 .22.22 0 0 1-.13-.02Zm-5.69-1.94 3.08-1.65a.77.77 0 0 0 .41-.49.81.81 0 0 0-.07-.63l-.49-.94a.8.8 0 0 0-.5-.4.77.77 0 0 0-.63.06l-3.08 1.64 1.28 2.41ZM29.84 10.49l-2.29-7.5a.21.21 0 0 1 0-.13.14.14 0 0 1 .09-.08l4-1.24a1.58 1.58 0 0 1 .77-.05c.224.025.441.093.64.2.402.21.707.569.85 1l1.37 4.49c.067.223.091.458.07.69a1.708 1.708 0 0 1-.2.64c-.109.193-.251.366-.42.51a1.72 1.72 0 0 1-.61.33l-4 1.24a.21.21 0 0 1-.13 0 .14.14 0 0 1-.14-.1Zm.65-1 3.34-1a.83.83 0 0 0 .49-.41.79.79 0 0 0 .09-.59l-1.37-4.48a.78.78 0 0 0-.4-.5.8.8 0 0 0-.64-.06l-3.34 1 1.83 6.04ZM43.08 7.96l.7-7.81a.12.12 0 0 1 .06-.1.16.16 0 0 1 .12-.05l4.21.38c.232.02.457.087.66.2.197.109.373.25.52.42a1.773 1.773 0 0 1 .4 1.27l-.42 4.67a1.78 1.78 0 0 1-.62 1.19 1.75 1.75 0 0 1-.59.31 1.54 1.54 0 0 1-.68.08l-4.21-.38a.16.16 0 0 1-.11 0 .16.16 0 0 1-.04-.18Zm1-.65 3.47.31a.79.79 0 0 0 .61-.19.81.81 0 0 0 .3-.57l.42-4.67a.83.83 0 0 0-.19-.61.811.811 0 0 0-.57-.3L44.64.97l-.56 6.34ZM49.98 8.67l.16-.54a.19.19 0 0 1 .08-.1.15.15 0 0 1 .13 0l2.2.64 1.78-6.11-2.2-.64a.14.14 0 0 1-.11-.2l.16-.55a.15.15 0 0 1 .2-.12l5.25 1.54a.15.15 0 0 1 .12.2l-.16.55a.151.151 0 0 1-.142.133.15.15 0 0 1-.068-.013l-2.18-.64-1.79 6.09 2.18.63a.15.15 0 0 1 .1.09.17.17 0 0 1 0 .12l-.16.55a.14.14 0 0 1-.136.124.139.139 0 0 1-.064-.014l-5.25-1.53a.15.15 0 0 1-.1-.21ZM57.04 9.19l.25-.49a.15.15 0 0 1 .1-.07.15.15 0 0 1 .13 0l.5.27a.12.12 0 0 1 .08.1.12.12 0 0 1 0 .12l-.25.49a.81.81 0 0 0 0 .63.77.77 0 0 0 .41.49l2.36 1.23a.81.81 0 0 0 .63 0 .83.83 0 0 0 .49-.41l.49-.94a.85.85 0 0 0-.36-1.13l-2.35-1.22a1.63 1.63 0 0 1-.54-.43 1.94 1.94 0 0 1-.32-.58 1.73 1.73 0 0 1 .11-1.33l.49-1a1.6 1.6 0 0 1 .43-.53 2 2 0 0 1 .59-.32 1.87 1.87 0 0 1 .67-.08c.23.021.454.086.66.19l2.35 1.23c.21.1.395.247.54.43.14.172.25.369.32.58.061.218.088.444.08.67a1.73 1.73 0 0 1-.19.66l-.26.49a.14.14 0 0 1-.159.097.14.14 0 0 1-.061-.027l-.51-.27a.14.14 0 0 1-.07-.22l.25-.49a.769.769 0 0 0 .06-.63.8.8 0 0 0-.41-.49l-2.36-1.23a.85.85 0 0 0-1.13.36l-.48.94a.8.8 0 0 0-.06.64.83.83 0 0 0 .41.49l2.36 1.22a1.6 1.6 0 0 1 .53.43c.147.172.255.373.32.59.072.216.099.444.08.67a1.65 1.65 0 0 1-.19.66l-.48.94a1.77 1.77 0 0 1-1.03.86 2.059 2.059 0 0 1-.66.07 1.73 1.73 0 0 1-.66-.19l-2.36-1.22a1.62 1.62 0 0 1-.53-.44 1.65 1.65 0 0 1-.32-.58 1.621 1.621 0 0 1-.08-.66c.01-.196.054-.389.13-.57ZM70.41 13.13l-.45-.35a.15.15 0 0 1 0-.24l.35-.43a.87.87 0 0 0 .17-.62.84.84 0 0 0-.31-.55l-2.08-1.65a.84.84 0 0 0-.922-.083.81.81 0 0 0-.248.213L64 13.1a.76.76 0 0 0-.18.61.84.84 0 0 0 .31.56l2.08 1.65a.782.782 0 0 0 .6.18.83.83 0 0 0 .56-.29l.35-.45a.2.2 0 0 1 .11-.06.15.15 0 0 1 .13 0l.44.36a.14.14 0 0 1 .06.11.12.12 0 0 1 0 .12l-.36.45a1.43 1.43 0 0 1-.52.43c-.196.104-.41.168-.63.19a1.642 1.642 0 0 1-.66-.05 1.61 1.61 0 0 1-.61-.31l-2.08-1.65a1.74 1.74 0 0 1-.45-.53 1.771 1.771 0 0 1-.19-.63 1.64 1.64 0 0 1 0-.66 1.67 1.67 0 0 1 .32-.62l2.92-3.67c.142-.187.323-.34.53-.45a2 2 0 0 1 .63-.2 1.64 1.64 0 0 1 .66 0c.223.058.431.164.61.31l2.08 1.65c.184.142.334.323.44.53a1.6 1.6 0 0 1 .2.63c.04.218.04.442 0 .66a1.649 1.649 0 0 1-.31.62l-.35.44a.15.15 0 0 1-.28.1ZM68.56 19.49a1.61 1.61 0 0 1-.33-.6 1.873 1.873 0 0 1-.08-.66 1.68 1.68 0 0 1 .19-.64 1.72 1.72 0 0 1 .42-.55l3.57-3a1.59 1.59 0 0 1 .61-.33c.212-.072.437-.1.66-.08.223.013.44.07.64.17.206.104.389.247.54.42l1.72 2c.153.179.269.386.34.61.063.214.087.438.07.66a1.918 1.918 0 0 1-.18.65 1.789 1.789 0 0 1-.42.54l-3.57 3c-.177.155-.385.27-.61.34a1.66 1.66 0 0 1-.66.07 1.8 1.8 0 0 1-.64-.18 1.58 1.58 0 0 1-.54-.42l-1.73-2Zm5.53-4.72a.83.83 0 0 0-.57-.29.81.81 0 0 0-.61.2l-3.57 3a.83.83 0 0 0-.29.57.802.802 0 0 0 .2.61l1.72 2a.8.8 0 0 0 .57.29.81.81 0 0 0 .61-.2l3.57-3a.8.8 0 0 0 .29-.57.81.81 0 0 0-.2-.61l-1.72-2ZM74.41 27.6l2.28-3.06-1.28-2.22-3 1.7a.14.14 0 0 1-.183-.005.14.14 0 0 1-.037-.055l-.28-.49a.15.15 0 0 1 .07-.23l6.83-3.84a.14.14 0 0 1 .22.06l2.07 3.68c.119.198.19.42.21.65a1.68 1.68 0 0 1-.05.67c-.063.216-.165.42-.3.6a1.751 1.751 0 0 1-.52.45l-.92.52a1.64 1.64 0 0 1-1.08.2 1.67 1.67 0 0 1-1-.49l-.3-.29-2.24 3a.1.1 0 0 1-.18 0l-.32-.58a.17.17 0 0 1 0-.14.26.26 0 0 1 .01-.13Zm1.81-5.72 1.72 3a.79.79 0 0 0 .5.39.77.77 0 0 0 .63-.07l.93-.52a.81.81 0 0 0 .39-.5.79.79 0 0 0-.08-.64l-1.71-3-2.38 1.34ZM75.18 29.15l7.45-2.45a.17.17 0 0 1 .12 0 .17.17 0 0 1 .09.1l1.32 4c.08.217.108.45.08.68-.018.226-.08.447-.18.65a1.608 1.608 0 0 1-.41.53c-.173.15-.374.265-.59.34l-4.46 1.49a1.82 1.82 0 0 1-.69.08 1.69 1.69 0 0 1-.64-.18c-.2-.104-.379-.243-.53-.41a1.771 1.771 0 0 1-.34-.6l-1.32-4a.15.15 0 0 1 0-.13.2.2 0 0 1 .1-.1Zm1 .63 1.09 3.32a.77.77 0 0 0 .42.48.79.79 0 0 0 .64.05l4.45-1.47a.808.808 0 0 0 .49-.42.77.77 0 0 0 0-.63l-1.09-3.32-6 1.99ZM78.02 42.33l7.82.53a.14.14 0 0 1 .11.06.16.16 0 0 1 .05.12l-.29 4.22a1.48 1.48 0 0 1-.18.66 1.77 1.77 0 0 1-1 .87 1.9 1.9 0 0 1-.68.09l-4.68-.32a1.711 1.711 0 0 1-.67-.18 1.67 1.67 0 0 1-.53-.41 1.939 1.939 0 0 1-.33-.58 1.56 1.56 0 0 1-.09-.68l.28-4.22a.17.17 0 0 1 .06-.11.169.169 0 0 1 .13-.05Zm.68 1-.24 3.48a.78.78 0 0 0 .21.6.8.8 0 0 0 .57.29l4.68.31a.811.811 0 0 0 .61-.2.822.822 0 0 0 .28-.57l.23-3.49-6.34-.42ZM77.46 49.25l.56.15a.15.15 0 0 1 .09.07.13.13 0 0 1 0 .13l-.59 2.21 6.15 1.64.59-2.21a.15.15 0 0 1 .2-.11l.56.14a.148.148 0 0 1 .106.078.15.15 0 0 1 .004.132l-1.41 5.28c0 .11-.09.15-.2.12l-.55-.15a.152.152 0 0 1-.108-.071.151.151 0 0 1-.012-.129l.58-2.2-6.14-1.64-.59 2.2a.19.19 0 0 1-.08.1.17.17 0 0 1-.12 0l-.56-.14a.151.151 0 0 1-.123-.144c-.001-.023.003-.045.013-.066l1.41-5.28c.05-.1.11-.14.22-.11ZM77.11 56.3l.49.24a.2.2 0 0 1 .08.1.15.15 0 0 1 0 .13l-.25.51a.22.22 0 0 1-.1.09.19.19 0 0 1-.13 0l-.49-.24a.789.789 0 0 0-.64 0 .779.779 0 0 0-.47.42l-1.19 2.33a.788.788 0 0 0 0 .64.77.77 0 0 0 .42.48l1 .47a.84.84 0 0 0 .64 0 .83.83 0 0 0 .47-.43l1.17-2.38a1.74 1.74 0 0 1 .42-.54 1.71 1.71 0 0 1 1.24-.43c.233.01.46.068.67.17l.95.47c.21.1.398.242.55.42.148.17.26.366.33.58.07.212.1.436.09.66a1.62 1.62 0 0 1-.17.67l-1.17 2.38a1.52 1.52 0 0 1-.42.55 1.68 1.68 0 0 1-.58.33 1.79 1.79 0 0 1-1.33-.08l-.49-.24a.16.16 0 0 1-.08-.23l.26-.51a.141.141 0 0 1 .159-.097.141.141 0 0 1 .06.027l.49.24a.84.84 0 0 0 .64 0 .821.821 0 0 0 .48-.43l1.17-2.38A.84.84 0 0 0 81 59.1l-1-.46a.73.73 0 0 0-.63 0 .77.77 0 0 0-.48.42l-1.2 2.43a1.702 1.702 0 0 1-1 .88c-.212.07-.435.1-.66.09a1.748 1.748 0 0 1-.67-.17l-1-.47a1.519 1.519 0 0 1-.55-.42 1.769 1.769 0 0 1-.42-1.24 1.7 1.7 0 0 1 .17-.66l1.17-2.39a1.74 1.74 0 0 1 .42-.54c.174-.145.37-.26.58-.34.213-.07.437-.101.66-.09.25.001.495.056.72.16ZM73.47 69.78l.34-.45a.15.15 0 0 1 .24 0l.44.33a.83.83 0 0 0 1.16-.16l1.61-2.12a.8.8 0 0 0 .16-.62.83.83 0 0 0-.32-.55l-3.69-2.87a.84.84 0 0 0-1.17.16l-1.61 2.12a.77.77 0 0 0-.16.6.801.801 0 0 0 .3.55l.46.35a.17.17 0 0 1 .06.11.13.13 0 0 1 0 .12l-.34.46a.141.141 0 0 1-.12.06.211.211 0 0 1-.12 0l-.45-.35a1.57 1.57 0 0 1-.45-.51 2.003 2.003 0 0 1-.2-.63 1.64 1.64 0 0 1 0-.66c.053-.224.152-.436.29-.62l1.61-2.11a1.63 1.63 0 0 1 .52-.46c.192-.107.403-.178.62-.21.221-.044.449-.044.67 0 .224.06.434.162.62.3l3.74 2.84c.184.141.337.318.45.52.227.39.295.852.19 1.29-.06.223-.162.434-.3.62l-1.61 2.13a1.501 1.501 0 0 1-.52.45c-.19.11-.401.181-.62.21-.218.04-.442.04-.66 0a1.65 1.65 0 0 1-.63-.29l-.44-.34a.15.15 0 0 1-.07-.27ZM67.1 68.06a1.701 1.701 0 0 1 1.25-.44c.222.017.439.075.64.17.215.098.406.241.56.42l3.12 3.5c.155.171.274.372.35.59.14.43.12.895-.06 1.31a1.72 1.72 0 0 1-.42.55l-2 1.77a1.6 1.6 0 0 1-.59.34 1.51 1.51 0 0 1-.66.09 1.638 1.638 0 0 1-.65-.16 1.589 1.589 0 0 1-.55-.41l-3.13-3.5a1.66 1.66 0 0 1-.35-.6 1.9 1.9 0 0 1-.09-.67 1.84 1.84 0 0 1 .17-.64c.094-.212.234-.4.41-.55l2-1.77Zm4.84 5.42a.79.79 0 0 0 .28-.57.86.86 0 0 0-.21-.61l-3.13-3.5a.85.85 0 0 0-1.18-.06l-2 1.77a.77.77 0 0 0-.27.57.75.75 0 0 0 .21.6l3.12 3.5a.77.77 0 0 0 .58.28.753.753 0 0 0 .6-.21l2-1.77ZM59.1 74.04l3.1 2.2 2.2-1.3-1.77-3a.15.15 0 0 1 0-.23l.49-.28a.15.15 0 0 1 .23.06l4 6.74a.161.161 0 0 1-.008.188.16.16 0 0 1-.052.042l-3.63 2.15a1.52 1.52 0 0 1-.65.22 1.679 1.679 0 0 1-.67 0 1.65 1.65 0 0 1-.6-.28 1.51 1.51 0 0 1-.46-.51l-.54-.91a1.64 1.64 0 0 1-.23-1.08 1.75 1.75 0 0 1 .46-1l.29-.31-3.07-2.17a.08.08 0 0 1-.05-.09.1.1 0 0 1 .06-.09l.56-.34a.33.33 0 0 1 .15 0 .29.29 0 0 1 .19-.01Zm5.76 1.68-3 1.78a.831.831 0 0 0-.39.51.89.89 0 0 0 .09.64l.54.91a.81.81 0 0 0 .52.38.78.78 0 0 0 .63-.09l3-1.78-1.39-2.35ZM57.55 74.9l2.62 7.39a.2.2 0 0 1 0 .13s0 .07-.09.08l-4 1.42a1.759 1.759 0 0 1-.68.1 2.078 2.078 0 0 1-.65-.17 1.9 1.9 0 0 1-.54-.4 1.738 1.738 0 0 1-.35-.59l-1.57-4.37a1.839 1.839 0 0 1-.1-.69 1.79 1.79 0 0 1 .17-.65 2 2 0 0 1 .4-.53c.169-.158.37-.278.59-.35l4-1.42a.2.2 0 0 1 .13 0c.027.011.05.028.07.05Zm-.61 1-3.29 1.17a.8.8 0 0 0-.47.43.81.81 0 0 0 0 .63l1.57 4.43a.8.8 0 0 0 .43.47.84.84 0 0 0 .64 0l3.29-1.17-2.17-5.96ZM44.41 78.03l-.35 7.83a.23.23 0 0 1-.06.12.151.151 0 0 1-.12 0l-4.22-.19a1.69 1.69 0 0 1-.67-.16 1.76 1.76 0 0 1-.89-1 1.73 1.73 0 0 1-.1-.68l.21-4.69c.01-.233.068-.46.17-.67.095-.206.231-.39.4-.54.167-.15.36-.27.57-.35a1.7 1.7 0 0 1 .68-.1l4.22.19a.16.16 0 0 1 .11.05.15.15 0 0 1 .05.19Zm-.94.7-3.49-.16a.789.789 0 0 0-.6.22.81.81 0 0 0-.27.58l-.21 4.69a.79.79 0 0 0 .22.6.81.81 0 0 0 .58.27l3.49.16.28-6.36ZM37.51 77.63l-.13.55a.14.14 0 0 1-.07.1.16.16 0 0 1-.13 0l-2.22-.54-1.55 6.21 2.22.54a.152.152 0 0 1 .115.068.15.15 0 0 1 .015.132l-.14.56a.14.14 0 0 1-.2.12l-5.31-1.29a.16.16 0 0 1-.13-.2l.14-.56c0-.11.09-.15.2-.12l2.21.53 1.51-6.18-2.22-.53a.18.18 0 0 1-.1-.09.17.17 0 0 1 0-.12l.14-.55a.14.14 0 0 1 .2-.12l5.31 1.29a.14.14 0 0 1 .14.2ZM30.41 77.43l-.23.5a.21.21 0 0 1-.1.08.13.13 0 0 1-.12 0l-.52-.24a.18.18 0 0 1-.09-.1.16.16 0 0 1 0-.12l.23-.5a.84.84 0 0 0 0-.64.839.839 0 0 0-.44-.47l-2.41-1.11a.79.79 0 0 0-.64 0 .829.829 0 0 0-.47.43l-.44 1a.79.79 0 0 0 0 .64.81.81 0 0 0 .44.47l2.41 1.12c.211.095.399.235.55.41.147.166.265.355.35.56.079.21.113.436.1.66a1.62 1.62 0 0 1-.16.68l-.44 1a1.62 1.62 0 0 1-.41.55 1.689 1.689 0 0 1-.57.35 1.83 1.83 0 0 1-.66.11 1.73 1.73 0 0 1-.67-.16l-2.41-1.12a1.76 1.76 0 0 1-.56-.41 1.8 1.8 0 0 1-.45-1.23c.01-.232.064-.46.16-.67l.23-.5a.152.152 0 0 1 .091-.093.15.15 0 0 1 .13.013l.52.24a.15.15 0 0 1 .08.22l-.23.5a.84.84 0 0 0 0 .64.81.81 0 0 0 .44.47l2.41 1.12a.85.85 0 0 0 1.11-.41l.44-1a.79.79 0 0 0 0-.64.81.81 0 0 0-.44-.47l-2.41-1.12a1.69 1.69 0 0 1-.55-.4 1.8 1.8 0 0 1-.34-.58 1.64 1.64 0 0 1-.11-.66 1.61 1.61 0 0 1 .16-.67l.44-1c.1-.21.239-.4.41-.56.17-.149.366-.264.58-.34a1.58 1.58 0 0 1 .65-.1c.23 0 .46.05.67.15l2.41 1.12c.211.098.402.237.56.41.15.165.265.36.34.57.082.21.12.435.11.66-.01.22-.062.438-.15.64ZM16.9 74.1l.46.33a.15.15 0 0 1 0 .24l-.33.45a.86.86 0 0 0-.14.62.81.81 0 0 0 .33.53l2.16 1.56a.76.76 0 0 0 .62.15.801.801 0 0 0 .54-.33l2.76-3.8a.81.81 0 0 0 .14-.62.78.78 0 0 0-.33-.55l-2.15-1.56a.84.84 0 0 0-.912-.044.81.81 0 0 0-.238.214l-.34.46a.139.139 0 0 1-.1.07.15.15 0 0 1-.13 0l-.46-.34a.14.14 0 0 1-.07-.11.211.211 0 0 1 0-.12l.33-.46a1.6 1.6 0 0 1 .51-.46c.194-.106.403-.18.62-.22.218-.04.442-.04.66 0 .228.047.442.143.63.28l2.15 1.56c.189.137.349.31.47.51.113.19.188.4.22.62a1.702 1.702 0 0 1-.31 1.29l-2.76 3.8c-.13.19-.301.351-.5.47a2.08 2.08 0 0 1-.63.23 1.64 1.64 0 0 1-.66 0 1.77 1.77 0 0 1-.63-.28l-2.15-1.56a1.79 1.79 0 0 1-.69-1.13 1.83 1.83 0 0 1 0-.66 1.63 1.63 0 0 1 .28-.63l.33-.46a.162.162 0 0 1 .32-.05ZM18.48 67.7a1.66 1.66 0 0 1 .46 1.23 1.73 1.73 0 0 1-.55 1.21l-3.44 3.21a1.66 1.66 0 0 1-.58.36c-.213.07-.436.108-.66.11a1.863 1.863 0 0 1-.65-.15 1.65 1.65 0 0 1-.56-.4l-1.81-1.94a1.76 1.76 0 0 1-.36-.58 1.911 1.911 0 0 1-.1-.67 1.86 1.86 0 0 1 .15-.65c.09-.211.223-.402.39-.56l3.44-3.2a1.79 1.79 0 0 1 1.25-.47c.224.01.444.061.65.15.208.1.398.236.56.4l1.81 1.95Zm-5.31 5a.85.85 0 0 0 1.18 0l3.43-3.21a.84.84 0 0 0 .21-.902.829.829 0 0 0-.17-.278L16 66.37a.75.75 0 0 0-.58-.26.79.79 0 0 0-.6.22l-3.41 3.16a.83.83 0 0 0-.26.59.809.809 0 0 0 .22.59l1.8 2.03ZM12.32 59.83l-2.13 3.15 1.35 2.17 2.94-1.84a.151.151 0 0 1 .188-.002.15.15 0 0 1 .042.052l.3.48a.149.149 0 0 1-.005.19.15.15 0 0 1-.055.04L8.3 68.22a.15.15 0 0 1-.23-.05l-2.23-3.58a1.57 1.57 0 0 1-.24-.64 1.88 1.88 0 0 1 0-.67 2 2 0 0 1 .28-.61 1.72 1.72 0 0 1 .49-.48l.9-.56a1.69 1.69 0 0 1 1.07-.25c.372.036.722.19 1 .44l.31.28 2.11-3.11a.09.09 0 0 1 .08-.06.12.12 0 0 1 .1.06l.35.55a.33.33 0 0 1 0 .15.21.21 0 0 1 .03.14Zm-1.55 5.8-1.85-3a.76.76 0 0 0-.52-.37.78.78 0 0 0-.63.1l-.9.56a.86.86 0 0 0-.37.52.81.81 0 0 0 .11.63l1.85 3 2.31-1.44ZM11.41 58.29l-7.33 2.78a.13.13 0 0 1-.12 0 .21.21 0 0 1-.1-.08l-1.5-4a1.75 1.75 0 0 1 .04-1.33c.1-.2.232-.382.39-.54a1.6 1.6 0 0 1 .58-.37l4.39-1.67a1.76 1.76 0 0 1 1.33 0c.204.093.388.226.54.39a1.6 1.6 0 0 1 .37.58L11.5 58a.13.13 0 0 1 0 .12.18.18 0 0 1-.09.17Zm-1-.59-1.24-3.21a.801.801 0 0 0-.44-.46.76.76 0 0 0-.64 0L3.7 55.7a.78.78 0 0 0-.46.43.79.79 0 0 0 0 .64l1.24 3.26 5.93-2.33Z" fill="#fff"/></svg>