<svg width="24" height="24" viewBox="0 0 24 24" fill="none" xmlns="http://www.w3.org/2000/svg">
<path d="M18.7608 19.5716L4.1767 4.98747C3.88502 4.69579 3.88502 4.2185 4.1767 3.92681C4.46838 3.63513 4.94568 3.63513 5.23736 3.92681L19.8214 18.5109C20.1131 18.8026 20.1131 19.2799 19.8214 19.5716C19.5298 19.8632 19.0525 19.8632 18.7608 19.5716Z" fill="white"/>
<path d="M4.1765 18.5108L18.7606 3.9267C19.0523 3.63502 19.5296 3.63502 19.8212 3.9267C20.1129 4.21838 20.1129 4.69568 19.8212 4.98736L5.23716 19.5714C4.94547 19.8631 4.46818 19.8631 4.1765 19.5714C3.88481 19.2798 3.88481 18.8025 4.1765 18.5108Z" fill="white"/>
</svg>
