<svg width="24" height="24" viewBox="0 0 24 24" fill="none" xmlns="http://www.w3.org/2000/svg">
<path d="M22.3125 6.9375H1.6875C1.275 6.9375 0.9375 6.6 0.9375 6.1875C0.9375 5.775 1.275 5.4375 1.6875 5.4375H22.3125C22.725 5.4375 23.0625 5.775 23.0625 6.1875C23.0625 6.6 22.725 6.9375 22.3125 6.9375Z" fill="white"/>
<path d="M12.1875 12.9375H1.6875C1.275 12.9375 0.9375 12.6 0.9375 12.1875C0.9375 11.775 1.275 11.4375 1.6875 11.4375H12.1875C12.6 11.4375 12.9375 11.775 12.9375 12.1875C12.9375 12.6 12.6 12.9375 12.1875 12.9375Z" fill="white"/>
<path d="M22.3125 18.9375H1.6875C1.275 18.9375 0.9375 18.6 0.9375 18.1875C0.9375 17.775 1.275 17.4375 1.6875 17.4375H22.3125C22.725 17.4375 23.0625 17.775 23.0625 18.1875C23.0625 18.6 22.725 18.9375 22.3125 18.9375Z" fill="white"/>
</svg>
