<svg width="23" height="23" viewBox="0 0 23 23" fill="none" xmlns="http://www.w3.org/2000/svg">
<path fill-rule="evenodd" clip-rule="evenodd" d="M13.9765 22.0792C21.3174 21.8668 22.0399 20.3195 22.0399 11.535C22.0399 1.84211 21.1599 0.960938 11.4799 0.960938C1.79992 0.960938 0.919922 1.84211 0.919922 11.535C0.919922 20.3424 1.6468 21.8747 9.04054 22.0809C9.10478 22.0007 9.12854 21.9003 9.12854 21.7981C9.12854 21.5778 9.11974 19.3167 9.11534 18.5386C6.44281 19.1017 5.87873 17.2882 5.87873 17.2882C5.44137 16.2114 4.81128 15.9242 4.81128 15.9242C3.9392 15.3461 4.87728 15.3576 4.87728 15.3576C5.84177 15.4237 6.34953 16.3189 6.34953 16.3189C7.20665 17.7438 8.59881 17.3323 9.14614 17.0935C9.23326 16.4916 9.48142 16.0801 9.75598 15.8475C7.62201 15.6122 5.37888 14.8121 5.37888 11.239C5.37888 10.2212 5.75377 9.38939 6.36801 8.7373C6.26857 8.50114 5.93945 7.553 6.46217 6.27001C6.46217 6.27001 7.26913 6.01888 9.10478 7.2252C9.87126 7.01813 10.6932 6.91503 11.5107 6.91151C12.3265 6.91503 13.1484 7.01813 13.9166 7.2252C15.7514 6.01888 16.5566 6.27001 16.5566 6.27001C17.0811 7.553 16.7511 8.50114 16.6517 8.7373C17.2677 9.38939 17.6399 10.2212 17.6399 11.239C17.6399 14.8209 15.3933 15.6096 13.2522 15.8396C13.5972 16.1277 13.9043 16.697 13.9043 17.5667C13.9043 18.4003 13.899 19.8745 13.8955 20.8517C13.8938 21.3355 13.8929 21.6967 13.8929 21.7981C13.8929 21.8941 13.9184 21.9955 13.9765 22.0792Z" fill="white"/>
</svg>
