<svg width="23" height="20" viewBox="0 0 23 20" fill="none" xmlns="http://www.w3.org/2000/svg">
<path fill-rule="evenodd" clip-rule="evenodd" d="M19.1435 18.5663L19.1442 18.5644L19.1632 18.517L22.4314 2.03958V1.98606C22.4314 1.57552 22.2797 1.21711 21.9496 1.00213C21.6607 0.813954 21.3285 0.800553 21.0956 0.818231C20.8493 0.836927 20.617 0.898411 20.4562 0.94959C20.3735 0.975921 20.3043 1.00129 20.2548 1.02048C20.2299 1.03011 20.2098 1.03828 20.1951 1.04437L20.1807 1.05043L1.95876 8.19864L1.95374 8.20044C1.9439 8.20402 1.93089 8.20888 1.91517 8.215C1.88383 8.2272 1.84117 8.24465 1.79106 8.26736C1.69267 8.31196 1.55673 8.38077 1.41886 8.47518C1.1847 8.63553 0.738832 9.01515 0.814121 9.61699C0.876483 10.1155 1.22011 10.4321 1.45178 10.596C1.57597 10.6839 1.69477 10.7472 1.78177 10.7887C1.82586 10.8096 1.8633 10.8257 1.89119 10.8371C1.90517 10.8428 1.91686 10.8473 1.9259 10.8508L1.93748 10.8551L1.94488 10.8578L5.13294 11.9311C5.12218 12.1311 5.14202 12.3351 5.19506 12.5363L6.792 18.5941C6.98134 19.3124 7.63113 19.8127 8.37394 19.8122C9.03976 19.8117 9.63026 19.4089 9.88113 18.8079L12.3743 16.1421L16.6563 19.4249L16.7172 19.4515C17.1062 19.6213 17.4697 19.6751 17.802 19.6297C18.1339 19.5843 18.3976 19.4452 18.5957 19.2867C18.7906 19.1307 18.9242 18.9547 19.0082 18.8222C19.0509 18.7549 19.0827 18.6957 19.1048 18.6512C19.1159 18.6288 19.1246 18.6099 19.1312 18.5951L19.1394 18.5762L19.1423 18.5691L19.1435 18.5663ZM6.77577 12.1196C6.73948 11.9819 6.79646 11.8366 6.91665 11.7602L17.7301 4.89322C17.7301 4.89322 18.3661 4.5071 18.3434 4.89322C18.3434 4.89322 18.4569 4.96141 18.1161 5.27935C17.7928 5.58132 10.4091 12.7101 9.66193 13.4314C9.6188 13.473 9.59306 13.5208 9.57786 13.5788L8.3727 18.1774L6.77577 12.1196Z" fill="white"/>
</svg>
