<svg width="52" height="42" viewBox="0 0 52 42" fill="none" xmlns="http://www.w3.org/2000/svg">
<path d="M52 4.98608C50.1487 5.94432 47.3472 6.39907 46.4297 6.529C46.4297 6.48028 46.4134 6.4478 46.4134 6.39907C49.5425 4.45012 50.5091 0.812065 50.5091 0.812065C48.5595 1.91647 46.8393 2.53364 45.5451 2.87471C44.8242 3.06961 44.218 3.16705 43.7921 3.23202C41.8261 1.23434 39.0901 0 36.0592 0C30.0958 0 25.2464 4.79118 25.2464 10.7193C25.2464 10.9304 25.2464 11.1415 25.2628 11.3527C25.2955 11.8724 25.3611 12.3759 25.4594 12.8631C22.5759 12.8144 12.1399 11.9374 3.4896 1.98144C3.4896 1.98144 -1.32703 10.3132 6.76623 15.9977C6.76623 15.9977 3.4896 15.9002 1.75299 14.6821C1.75299 14.6821 1.24512 22.7053 10.5671 25.239C10.5671 25.239 7.29049 26.051 5.65217 25.3364C5.65217 25.3364 7.29049 32.239 15.482 32.7425C15.482 32.7425 9.6005 38.0696 0 37.3063C4.71834 40.2622 10.3214 41.9838 16.3176 41.9838C33.1922 41.9838 46.8721 28.4223 46.8721 11.6937C46.8721 11.4826 46.8721 11.2715 46.8721 11.0603C46.8721 10.9304 46.8721 10.8167 46.8721 10.6868C46.8721 10.6056 46.8721 10.5081 46.8721 10.4269C49.9849 8.39675 52 4.98608 52 4.98608Z" fill="#00ACEE"/>
</svg>
